<svg width="49" height="29" viewBox="0 0 49 29" fill="none" xmlns="http://www.w3.org/2000/svg">
<path d="M48.7619 14.5C48.7619 22.4564 42.2927 29 34.2619 29C26.3055 29 19.7619 22.4564 19.7619 14.5C19.7619 6.54359 26.2311 0 34.1875 0C42.2927 0 48.7619 6.54359 48.7619 14.5Z" fill="#808080"/>
<path d="M29.3542 14.5744C29.3542 13.5333 29.2055 12.4923 29.0568 11.5256H20.1337C20.2081 11.0051 20.3568 10.559 20.5055 9.9641H28.4619C28.3132 9.44359 28.0901 8.92308 27.8671 8.40256H21.1004C21.3235 7.88205 21.6209 7.4359 21.9183 6.84103H27.0491C26.7517 6.32051 26.3799 5.8 25.9337 5.27949H23.1081C23.5542 4.75897 24.0004 4.31282 24.5953 3.79231C22.0671 1.41282 18.6465 0 14.8542 0C6.97218 0.223077 0.428589 6.54359 0.428589 14.5C0.428589 22.4564 6.89782 29 14.9286 29C18.7209 29 22.0671 27.5128 24.6696 25.2077C25.1901 24.7615 25.6363 24.241 26.1568 23.6462H23.1824C22.8106 23.2 22.4388 22.6795 22.1414 22.159H27.1978C27.4953 21.7128 27.7927 21.1923 28.0158 20.5974H21.2491C21.026 20.1513 20.8029 19.6308 20.6542 19.0359H28.6106C29.0568 17.6974 29.3542 16.2103 29.3542 14.5744Z" fill="#686868"/>
<path d="M20.0615 18.2182L20.2846 16.8797C20.2102 16.8797 20.0615 16.9541 19.9128 16.9541C19.3923 16.9541 19.3179 16.6567 19.3923 16.5079L19.8384 13.831H20.6564L20.8795 12.3438H20.1359L20.2846 11.4515H18.7231C18.7231 11.4515 17.8307 16.5079 17.8307 17.1028C17.8307 17.9951 18.3513 18.4413 19.0949 18.4413C19.541 18.4413 19.9128 18.2925 20.0615 18.2182Z" fill="white"/>
<path d="M20.5818 15.7641C20.5818 17.9205 22.069 18.4411 23.2588 18.4411C24.3742 18.4411 24.8947 18.218 24.8947 18.218L25.1921 16.7308C25.1921 16.7308 24.3742 17.1026 23.5562 17.1026C21.846 17.1026 22.1434 15.8385 22.1434 15.8385H25.2665C25.2665 15.8385 25.4895 14.8718 25.4895 14.4257C25.4895 13.459 24.969 12.1949 23.2588 12.1949C21.7716 12.1205 20.5818 13.8308 20.5818 15.7641ZM23.2588 13.5334C24.0767 13.5334 23.928 14.5 23.928 14.5744H22.2177C22.2921 14.5 22.4408 13.5334 23.2588 13.5334Z" fill="white"/>
<path d="M32.9982 18.218L33.2956 16.5078C33.2956 16.5078 32.552 16.8796 31.9571 16.8796C30.9161 16.8796 30.3956 16.0616 30.3956 15.095C30.3956 13.236 31.2879 12.2693 32.4033 12.2693C33.1469 12.2693 33.8161 12.7155 33.8161 12.7155L34.0392 11.0796C34.0392 11.0796 33.1469 10.7078 32.2546 10.7078C30.47 10.7078 28.7597 12.2693 28.7597 15.1693C28.7597 17.1026 29.652 18.3667 31.511 18.3667C32.1802 18.4411 32.9982 18.218 32.9982 18.218Z" fill="white"/>
<path d="M11.6574 12.1204C10.6164 12.1204 9.79847 12.4179 9.79847 12.4179L9.5754 13.7563C9.5754 13.7563 10.2446 13.4589 11.2857 13.4589C11.8062 13.4589 12.2523 13.5332 12.2523 13.9794C12.2523 14.2768 12.178 14.3512 12.178 14.3512H11.5087C10.1703 14.3512 8.75745 14.8717 8.75745 16.6563C8.75745 18.0691 9.64975 18.3666 10.2446 18.3666C11.2857 18.3666 11.8062 17.6973 11.8805 17.6973L11.8062 18.2922H13.0703L13.6651 14.0538C13.6651 12.1948 12.178 12.1204 11.6574 12.1204ZM11.9549 15.5409C11.9549 15.764 11.8062 17.0281 10.9139 17.0281C10.4677 17.0281 10.319 16.6563 10.319 16.4332C10.319 16.0614 10.5421 15.5409 11.7318 15.5409C11.8805 15.5409 11.9549 15.5409 11.9549 15.5409Z" fill="white"/>
<path d="M15.1531 18.3668C15.5249 18.3668 17.4582 18.4411 17.4582 16.3591C17.4582 14.4257 15.5993 14.7975 15.5993 14.0539C15.5993 13.6821 15.8967 13.5334 16.4172 13.5334C16.6403 13.5334 17.4582 13.6078 17.4582 13.6078L17.6813 12.195C17.6813 12.195 17.1608 12.0462 16.1941 12.0462C15.0787 12.0462 13.889 12.4924 13.889 14.0539C13.889 15.8386 15.8223 15.6898 15.8223 16.3591C15.8223 16.8052 15.3018 16.8796 14.93 16.8796C14.2608 16.8796 13.5172 16.6565 13.5172 16.6565L13.2941 18.0693C13.4428 18.218 13.889 18.3668 15.1531 18.3668Z" fill="white"/>
<path d="M45.7858 10.931L45.4884 13.013C45.4884 13.013 44.8935 12.2694 44.0012 12.2694C42.5884 12.2694 41.3986 13.9797 41.3986 15.9874C41.3986 17.2515 41.9935 18.5156 43.332 18.5156C44.2243 18.5156 44.8191 17.9207 44.8191 17.9207L44.7448 18.4412H46.3063L47.4217 11.0797L45.7858 10.931ZM45.0422 14.9464C45.0422 15.7643 44.6704 16.8797 43.7781 16.8797C43.2576 16.8797 42.9602 16.4335 42.9602 15.6156C42.9602 14.3515 43.4807 13.6079 44.2243 13.6079C44.7448 13.6822 45.0422 14.054 45.0422 14.9464Z" fill="white"/>
<path d="M3.25354 18.2925L4.14584 12.7899L4.29456 18.2925H5.33559L7.34328 12.7899L6.52533 18.2925H8.16123L9.42533 10.931H6.89713L5.33559 15.4669L5.26123 10.931H3.03046L1.76636 18.2925H3.25354Z" fill="white"/>
<path d="M27.0499 18.2925C27.4961 15.7643 27.5704 13.6823 28.6858 14.0541C28.8345 13.0874 29.0576 12.6412 29.2063 12.2694H28.9089C28.2397 12.2694 27.6448 13.1617 27.6448 13.1617L27.7935 12.3438H26.3063L25.3397 18.2925H27.0499Z" fill="white"/>
<path d="M36.5685 12.1204C35.5275 12.1204 34.7095 12.4179 34.7095 12.4179L34.4865 13.7563C34.4865 13.7563 35.1557 13.4589 36.1967 13.4589C36.7172 13.4589 37.1634 13.5332 37.1634 13.9794C37.1634 14.2768 37.089 14.3512 37.089 14.3512H36.4198C35.0813 14.3512 33.6685 14.8717 33.6685 16.6563C33.6685 18.0691 34.5608 18.3666 35.1557 18.3666C36.1967 18.3666 36.7172 17.6973 36.7916 17.6973L36.7172 18.2922H38.1301L38.7249 14.0538C38.7249 12.1948 37.089 12.1204 36.5685 12.1204ZM36.9403 15.5409C36.9403 15.764 36.7916 17.0281 35.8993 17.0281C35.4531 17.0281 35.3044 16.6563 35.3044 16.4332C35.3044 16.0614 35.5275 15.5409 36.7172 15.5409C36.866 15.5409 36.866 15.5409 36.9403 15.5409Z" fill="white"/>
<path d="M39.9155 18.2925C40.3616 15.7643 40.436 13.6823 41.5514 14.0541C41.7001 13.0874 41.9231 12.6412 42.0719 12.2694H41.7744C41.1052 12.2694 40.5103 13.1617 40.5103 13.1617L40.659 12.3438H39.1719L38.2052 18.2925H39.9155Z" fill="white"/>
</svg>
