<svg width="46" height="13" viewBox="0 0 46 13" fill="none" xmlns="http://www.w3.org/2000/svg">
<g clip-path="url(#clip0_3915_55)">
<path d="M16.4204 12.9835H12.3268V5.36236H12.0556C11.2944 7.9033 10.5335 10.4413 9.77137 12.9852H6.66659C5.90653 10.4476 5.14442 7.90372 4.38068 5.35473H4.11888C4.10459 5.98902 4.11439 6.61991 4.11235 7.2508C4.11072 7.88465 4.11235 8.51851 4.11235 9.15237C4.11235 9.78623 4.11235 10.4201 4.11235 11.0539C4.11235 11.6874 4.11235 12.3208 4.11235 12.9487C3.9596 13.0068 0.249543 13.0203 0 12.9657V0.0249979C0.0882181 0.0190661 0.173169 0.00889729 0.258119 0.00847359C1.52421 0.00762619 2.7903 0.00762619 4.05599 0.00762619C4.23242 0.00762619 4.40927 0.00211808 4.5853 0.00847359C5.3911 0.0381327 5.91755 0.488527 6.22836 1.22322C6.36967 1.55668 6.46361 1.91259 6.56203 2.26383C7.04723 3.99381 7.52631 5.72547 8.00824 7.45629C8.02662 7.52281 8.05153 7.58764 8.07563 7.65967H8.3656C8.38929 7.58383 8.41584 7.50629 8.43789 7.42748C8.98109 5.50261 9.52224 3.57688 10.0675 1.65286C10.1876 1.22873 10.3754 0.84147 10.6903 0.53005C11.0036 0.220324 11.3805 0.0559281 11.8069 0.0211846C12.0638 -4.31202e-07 12.3228 0.00889729 12.5809 0.00847359C13.7788 0.00762619 14.9766 0.00804989 16.1745 0.00804989H16.4094C16.4572 0.186852 16.4653 12.7437 16.4204 12.9839V12.9835Z" fill="white"/>
<path d="M31.1148 12.9847H26.9428V5.36151H26.6108C26.5814 5.42338 26.5463 5.49074 26.516 5.56065C25.6494 7.55713 24.7811 9.55319 23.9173 11.5509C23.5885 12.3111 23.0408 12.7894 22.2538 12.9691C22.175 12.9869 22.0925 12.9949 22.0116 12.9949C20.8002 12.9966 19.5889 12.9962 18.3775 12.9953C18.3114 12.9953 18.2452 12.9881 18.1647 12.9831V0.0521152C18.3052 -0.000847495 21.983 -0.0220326 22.3412 0.0309301C22.3469 0.119907 22.3584 0.214393 22.3584 0.309302C22.3592 2.66127 22.3592 5.01323 22.3592 7.3652V7.64696H22.6643C22.6961 7.58256 22.7353 7.50968 22.7688 7.43468C23.6473 5.45134 24.5279 3.46927 25.4011 1.48338C25.6522 0.911805 26.0088 0.45336 26.5695 0.185157C26.8134 0.0682158 27.0645 0.00423692 27.3378 0.00593172C28.5152 0.0122872 29.6923 0.00847393 30.8698 0.00847393C30.9502 0.00847393 31.0303 0.00847393 31.1042 0.00847393C31.1548 0.188547 31.163 12.7475 31.1152 12.9852L31.1148 12.9847Z" fill="white"/>
<path d="M45.9068 5.36844C45.8219 5.37267 45.7484 5.37903 45.6749 5.37903C43.2052 5.3786 40.735 5.38411 38.2654 5.37055C37.7446 5.36759 37.2186 5.3786 36.7044 5.23878C35.919 5.02566 35.2255 4.63543 34.6182 4.08504C33.792 3.33679 33.1949 2.42541 32.8526 1.34243C32.7215 0.9272 32.6292 0.502651 32.6051 0.0327666C32.6847 0.029377 32.7619 0.0234452 32.8391 0.0234452C34.6762 0.0213267 36.5132 0.0200556 38.3503 0.0183608C39.3779 0.0175134 40.405 0.0183608 41.4326 0.0162423C42.229 0.0141238 42.9887 0.177672 43.6912 0.571291C44.9454 1.27379 45.6834 2.36694 45.9387 3.81345C46.0236 4.2952 46.024 4.77822 45.9366 5.26039C45.9317 5.28751 45.9219 5.31378 45.9068 5.36801V5.36844Z" fill="#808080"/>
<path d="M45.6294 6.2031C45.513 6.56282 45.3443 6.87467 45.136 7.16236C44.4409 8.12119 43.504 8.69361 42.3919 8.98004C41.9802 9.08596 41.5616 9.12198 41.138 9.12113C39.7772 9.11816 38.4163 9.12028 37.0555 9.12028C36.9755 9.12028 36.895 9.12028 36.7937 9.12028V12.9484C36.6303 13.0069 33.0395 13.0192 32.7957 12.9666V6.22513C32.8035 6.21539 32.8076 6.20946 32.8125 6.20479C32.8174 6.20013 32.8227 6.19505 32.8288 6.19378C32.8553 6.18827 32.8819 6.1798 32.9084 6.1798C37.1204 6.1798 41.3324 6.1798 45.5445 6.18064C45.5636 6.18064 45.5828 6.19039 45.6302 6.2031H45.6294Z" fill="white"/>
</g>
<defs>
<clipPath id="clip0_3915_55">
<rect width="46" height="13" fill="white"/>
</clipPath>
</defs>
</svg>
