<svg width="588" height="40" viewBox="0 0 588 40" fill="none" xmlns="http://www.w3.org/2000/svg">
<path d="M43.36 7.8V12.64C43.36 17.84 40.16 20.44 33.72 20.44H7.8V32H2.98023e-08V-4.76837e-07H33.72C40.16 -4.76837e-07 43.36 2.6 43.36 7.8ZM33.72 7.44H7.8V13H33.72C34.92 13 35.52 12.6 35.52 11.84V8.6C35.52 7.84 34.92 7.44 33.72 7.44ZM76.01 13.72V17.12C76.01 20.68 74.01 22.32 69.85 22.32H54.09V23.84C54.09 24.88 54.69 25.4 55.89 25.4H75.61V32H55.21C49.25 32 46.25 29.6 46.25 24.76V14.8C46.25 10.36 49.25 8.16 55.21 8.16H69.85C73.97 8.16 76.01 10 76.01 13.72ZM66.65 14.36H55.89C54.69 14.36 54.09 14.92 54.09 16.08V17.72H66.65C67.65 17.72 68.17 17.12 68.17 15.96C68.17 14.88 67.65 14.36 66.65 14.36ZM107.08 14.36V16.24C107.08 17.88 106.56 19.08 105.64 20C106.64 20.92 107.28 22.12 107.28 23.88V25.76C107.28 30.68 104.12 32 97.6 32H79.44V26.92H97.6C98.8 26.92 99.4 26.4 99.4 25.4V23.8C99.4 22.8 98.88 22.32 97.84 22.32H84.32V17.8H97.84C98.88 17.8 99.4 17.32 99.4 16.32V14.72C99.4 13.72 98.8 13.2 97.6 13.2H79.44V8.12H97.6C104.08 8.12 107.08 9.44 107.08 14.36ZM142.695 8.16V31.92C142.695 37.16 139.495 39.76 133.055 39.76H112.295V33.16H132.335C134.015 33.16 134.855 32.4 134.855 30.92V28.56H117.815C113.295 28.56 111.055 26.48 111.055 22.32V8.16H118.855V20.36C118.855 21.44 119.455 21.96 120.695 21.96H134.855V8.16H142.695ZM178.8 8.16V32H171V14.36H155V24.24C155 26.96 153.88 30.08 152.48 32H144.64C146.32 29.72 147.16 27.2 147.16 24.44V8.16H178.8ZM203.213 22.44H190.653V25.8H203.213C204.213 25.8 204.733 25.28 204.733 24.2C204.733 23.04 204.213 22.44 203.213 22.44ZM212.573 21.84V26.44C212.573 30.16 210.533 32 206.413 32H182.813V8.16H190.653V16.64H206.413C210.573 16.64 212.573 18.28 212.573 21.84ZM246.371 8.16V14.36H234.011V32H226.531V14.36H214.531V8.16H246.371ZM278.549 15.4V25.36C278.549 29.8 275.549 32 269.589 32H254.949C250.829 32 248.789 30.16 248.789 26.44V22.88C248.789 19.32 250.829 17.52 254.949 17.52H270.709V15.88C270.709 14.84 270.109 14.32 268.909 14.32H249.229V8.16H269.589C275.549 8.16 278.549 10.56 278.549 15.4ZM270.709 22.32H258.149C257.149 22.32 256.629 22.92 256.629 24.08C256.629 25.16 257.149 25.68 258.149 25.68H268.909C270.109 25.68 270.709 25.12 270.709 23.96V22.32ZM312.543 8.16V14.36H300.183V32H292.703V14.36H280.703V8.16H312.543ZM335.361 22.44H322.801V25.8H335.361C336.361 25.8 336.881 25.28 336.881 24.2C336.881 23.04 336.361 22.44 335.361 22.44ZM344.721 21.84V26.44C344.721 30.16 342.681 32 338.561 32H314.961V8.16H322.801V16.64H338.561C342.721 16.64 344.721 18.28 344.721 21.84ZM357.241 8.16V32H349.441V8.16H357.241ZM412.46 8.16V32H404.66V14.36H388.66V32H380.82V8.16H412.46ZM438.445 14.36H426.085C424.885 14.36 424.285 14.88 424.285 15.92V23.8C424.285 24.88 424.885 25.4 426.085 25.4H438.445C439.685 25.4 440.285 24.88 440.285 23.88V15.92C440.285 14.88 439.685 14.36 438.445 14.36ZM448.085 16V24.24C448.085 29.4 444.885 32 438.445 32H426.085C419.645 32 416.445 29.4 416.445 24.16V16C416.445 10.76 419.645 8.16 426.085 8.16H438.445C444.885 8.16 448.085 10.76 448.085 16ZM492.43 8.16V32H484.59V13.72H484.31C482.99 13.72 481.71 14.52 480.87 15.48L469.63 28.6C467.59 31 465.63 32 462.27 32H452.11V8.16H459.95V26.44H460.27C461.55 26.44 462.79 25.64 463.63 24.68L475.19 11.4C477.15 9.12 479.11 8.16 482.31 8.16H492.43ZM524.045 8.16V14.36H506.085C504.885 14.36 504.285 14.88 504.285 15.92V23.8C504.285 24.88 504.885 25.4 506.085 25.4H524.205V32H506.085C499.645 32 496.445 29.4 496.445 24.16V16C496.445 10.76 499.645 8.16 506.085 8.16H524.045ZM555.774 8.16L546.214 19L557.054 32H548.294L540.894 22.68H535.094V32H527.734V8.16H535.094V16.72H540.094L547.334 8.16H555.774ZM587.573 15.4V25.36C587.573 29.8 584.573 32 578.613 32H563.973C559.853 32 557.813 30.16 557.813 26.44V22.88C557.813 19.32 559.853 17.52 563.973 17.52H579.733V15.88C579.733 14.84 579.133 14.32 577.933 14.32H558.253V8.16H578.613C584.573 8.16 587.573 10.56 587.573 15.4ZM579.733 22.32H567.173C566.173 22.32 565.653 22.92 565.653 24.08C565.653 25.16 566.173 25.68 567.173 25.68H577.933C579.133 25.68 579.733 25.12 579.733 23.96V22.32Z" fill="#231815"/>
</svg>
