<svg width="45" height="14" viewBox="0 0 45 14" fill="none" xmlns="http://www.w3.org/2000/svg">
<g clip-path="url(#clip0_3915_63)">
<path d="M44.9985 13.7257V13.8069H41.6259C41.4793 13.1233 41.3358 12.4538 41.1914 11.7803H36.5074C36.2532 12.4546 35.9988 13.1301 35.7464 13.7996H31.9283C31.9483 13.7478 31.9629 13.7062 31.9806 13.6656C33.4046 10.3944 34.8287 7.12334 36.2532 3.8525C36.6256 2.99757 36.9973 2.14209 37.3742 1.28879C37.5225 0.953093 37.747 0.674794 38.0822 0.490433C38.4132 0.30851 38.7768 0.249222 39.1505 0.247056C40.0885 0.242183 41.0268 0.24462 41.9648 0.244891C41.9963 0.244891 42.0278 0.250847 42.0613 0.254095C42.3754 1.70109 42.6878 3.14213 43.0004 4.58317C43.3246 6.07728 43.6491 7.57138 43.973 9.06575C44.2682 10.4277 44.5626 11.79 44.859 13.1517C44.9009 13.3439 44.9515 13.5343 44.9983 13.7254L44.9985 13.7257ZM37.5638 8.99888H40.5889C40.2264 7.30878 39.8662 5.62761 39.5006 3.92343C38.8519 5.62301 38.2117 7.30147 37.5638 8.99888Z" fill="white"/>
<path d="M30.0298 0C30.1617 0.0170553 30.2932 0.03763 30.4257 0.0506246C31.1889 0.12426 31.9294 0.290753 32.6473 0.550644C32.6647 0.556871 32.6808 0.566346 32.7162 0.583401C32.5527 1.54933 32.3887 2.52094 32.2238 3.49607C31.9629 3.39374 31.7147 3.28897 31.4611 3.19855C30.5484 2.87288 29.6048 2.77704 28.6406 2.87477C28.232 2.91619 27.8417 3.02611 27.5068 3.27219C27.3115 3.41594 27.1688 3.59516 27.1046 3.82689C27.0233 4.12171 27.1162 4.37943 27.3303 4.58247C27.5189 4.76115 27.7266 4.93143 27.9537 5.06002C28.4169 5.32262 28.8956 5.56004 29.3732 5.798C30.0551 6.13776 30.6987 6.52705 31.2317 7.06741C31.7358 7.57853 32.0687 8.1752 32.1599 8.87825C32.2606 9.65522 32.139 10.4065 31.8056 11.1214C31.3544 12.0887 30.5906 12.7625 29.6231 13.2382C28.9375 13.5752 28.2084 13.7845 27.4482 13.8877C27.0638 13.9399 26.6752 13.9635 26.2885 14C26.0248 14 25.7611 14.0003 25.4974 14.0005C24.4454 13.9564 23.4095 13.8148 22.4026 13.5097C22.1943 13.4466 21.9908 13.3684 21.7809 13.2956C21.9528 12.2712 22.1217 11.2641 22.2922 10.2476C22.5371 10.3534 22.7662 10.4541 22.9966 10.5518C23.6332 10.8212 24.2881 11.0345 24.9821 11.1122C25.6443 11.1864 26.3079 11.2354 26.9693 11.1014C27.274 11.0397 27.5645 10.9401 27.8231 10.7703C28.1974 10.525 28.4132 10.1977 28.373 9.74483C28.3539 9.52988 28.2565 9.34876 28.1135 9.18742C27.9008 8.94729 27.6379 8.76455 27.3548 8.61349C26.913 8.37796 26.461 8.16031 26.0161 7.92992C25.3364 7.57772 24.6965 7.17326 24.1724 6.61774C23.4905 5.89492 23.208 5.0519 23.322 4.07948C23.4635 2.87315 24.0782 1.93862 25.0753 1.22338C25.8511 0.666783 26.7329 0.339483 27.6773 0.166493C28.026 0.102603 28.3817 0.0728236 28.7341 0.0262598C28.7541 0.0235526 28.7723 0.00947519 28.7915 0.000812159C29.2043 0.000812159 29.6169 0 30.0298 0Z" fill="white"/>
<path d="M0 0.460223C0.0219512 0.392543 0.043621 0.324863 0.0697936 0.244459C0.115103 0.244459 0.166041 0.244459 0.216698 0.244459C2.08818 0.244459 3.95966 0.244459 5.83086 0.244459C6.10919 0.244459 6.38358 0.273968 6.64812 0.357891C7.16341 0.521135 7.45947 0.878214 7.56923 1.37715C7.70882 2.01118 7.83349 2.64818 7.96379 3.2841C8.14672 4.17612 8.32852 5.06841 8.51145 5.96044C8.60826 6.43284 8.70647 6.90525 8.803 7.37765C8.81116 7.41718 8.80976 7.45833 8.81285 7.49866C8.79456 7.46266 8.77345 7.42774 8.75826 7.39038C8.49006 6.73036 8.14925 6.10635 7.74287 5.51591C6.86989 4.24732 5.75629 3.21209 4.44034 2.37502C4.24615 2.25158 4.04099 2.1441 3.8409 2.02931C3.61829 1.90695 3.39991 1.77619 3.17223 1.6633C2.19962 1.18088 1.17861 0.820821 0.122702 0.550914C0.0835835 0.540897 0.0410882 0.544417 0 0.541439C0 0.514367 0 0.487295 0 0.460223Z" fill="#808080"/>
<path d="M3.84086 2.02909C4.04095 2.14388 4.24611 2.25135 4.44029 2.3748C5.75652 3.21187 6.87013 4.2471 7.74283 5.51569C8.14921 6.1064 8.49001 6.73014 8.75821 7.39016C8.77341 7.42752 8.79452 7.46244 8.81281 7.49844C8.92425 8.0139 9.0357 8.52962 9.14714 9.04507C9.17669 9.18151 9.2054 9.31822 9.2417 9.48905C10.4378 6.39093 11.6226 3.32286 12.8088 0.250195H16.6612C16.5917 0.416958 16.525 0.57939 16.4566 0.741009C14.6386 5.03841 12.8209 9.33609 11.0017 13.6332C10.9221 13.8211 10.9691 13.7892 10.7642 13.7894C9.5918 13.7908 8.41909 13.79 7.24667 13.79H7.08204C7.01028 13.5339 6.93908 13.2832 6.86984 13.0322C5.93551 9.64309 5.00146 6.25422 4.06769 2.86508C3.99086 2.58651 3.91628 2.30766 3.84058 2.02882L3.84086 2.02909Z" fill="white"/>
<path d="M19.5029 13.8007H15.8576C16.6175 9.28156 17.3759 4.77029 18.1355 0.252247H21.7808C21.0215 4.76839 20.2625 9.28237 19.5029 13.8007Z" fill="white"/>
</g>
<defs>
<clipPath id="clip0_3915_63">
<rect width="45" height="14" fill="white"/>
</clipPath>
</defs>
</svg>
